HIERARCHY
ROOT Hips
{
 OFFSET 0.000000 0.000000 0.000000
 CHANNELS 6 Xposition Yposition Zposition Yrotation Xrotation Zrotation
 JOINT Chest
 {
  OFFSET 0.000000 10.080317 -0.001081
  CHANNELS 3 Yrotation Xrotation Zrotation
  JOINT Chest2
  {
   OFFSET 0.000000 11.096852 0.001963
   CHANNELS 3 Yrotation Xrotation Zrotation
   JOINT Chest3
   {
    OFFSET 0.000000 10.026525 0.000000
    CHANNELS 3 Yrotation Xrotation Zrotation
    JOINT Chest4
    {
     OFFSET 0.000000 10.026525 0.000000
     CHANNELS 3 Yrotation Xrotation Zrotation
     JOINT Neck
     {
      OFFSET 0.000000 14.108171 0.000000
      CHANNELS 3 Yrotation Xrotation Zrotation
      JOINT Head
      {
       OFFSET 0.000000 9.333493 0.004668
       CHANNELS 3 Yrotation Xrotation Zrotation
       End Site
       {
        OFFSET 0.000000 17.851786 0.002438
       }
      }
     }
     JOINT RightCollar
     {
      OFFSET -3.071622 7.873185 0.000000
      CHANNELS 3 Yrotation Xrotation Zrotation
      JOINT RightShoulder
      {
       OFFSET -14.378659 0.000000 0.000000
       CHANNELS 3 Yrotation Xrotation Zrotation
       JOINT RightElbow
       {
        OFFSET -30.778728 0.000000 0.000000
        CHANNELS 3 Yrotation Xrotation Zrotation
        JOINT RightWrist
        {
         OFFSET -25.164217 0.000000 0.000000
         CHANNELS 3 Yrotation Xrotation Zrotation
         End Site
         {
          OFFSET -18.796788 0.000000 0.000000
         }
        }
       }
      }
     }
     JOINT LeftCollar
     {
      OFFSET 3.071622 7.873185 0.000000
      CHANNELS 3 Yrotation Xrotation Zrotation
      JOINT LeftShoulder
      {
       OFFSET 14.378659 0.000000 0.000000
       CHANNELS 3 Yrotation Xrotation Zrotation
       JOINT LeftElbow
       {
        OFFSET 30.778728 0.000000 0.000000
        CHANNELS 3 Yrotation Xrotation Zrotation
        JOINT LeftWrist
        {
         OFFSET 25.164217 0.000000 0.000000
         CHANNELS 3 Yrotation Xrotation Zrotation
         End Site
         {
          OFFSET 18.796788 0.000000 0.000000
         }
        }
       }
      }
     }
    }
   }
  }
 }
 JOINT RightHip
 {
  OFFSET -8.194923 0.005295 0.000540
  CHANNELS 3 Yrotation Xrotation Zrotation
  JOINT RightKnee
  {
   OFFSET 0.000000 -42.473320 -0.000511
   CHANNELS 3 Yrotation Xrotation Zrotation
   JOINT RightAnkle
   {
    OFFSET 0.000000 -41.474259 -0.000865
    CHANNELS 3 Yrotation Xrotation Zrotation
    JOINT RightToe
    {
     OFFSET 0.000000 -7.354994 16.712725
     CHANNELS 3 Yrotation Xrotation Zrotation
     End Site
     {
      OFFSET 0.000000 -1.553903 6.764158
     }
    }
   }
  }
 }
 JOINT LeftHip
 {
  OFFSET 8.194923 0.005295 0.000540
  CHANNELS 3 Yrotation Xrotation Zrotation
  JOINT LeftKnee
  {
   OFFSET 0.000000 -42.473320 -0.000511
   CHANNELS 3 Yrotation Xrotation Zrotation
   JOINT LeftAnkle
   {
    OFFSET 0.000000 -41.474259 -0.000865
    CHANNELS 3 Yrotation Xrotation Zrotation
    JOINT LeftToe
    {
     OFFSET 0.000000 -7.354994 16.712725
     CHANNELS 3 Yrotation Xrotation Zrotation
     End Site
     {
      OFFSET 0.000000 -1.553903 6.764158
     }
    }
   }
  }
 }
}
MOTION
Frames: 8
Frame Time: 0.016667
-171.045409 94.115667 177.300500 -4.797555 -3.251709 -10.788435 3.162382 5.030800 3.191675 1.380670 2.252535 1.361345 1.380670 2.252535 1.361345 1.030355 1.692497 1.015792 -1.921777 15.515677 4.750629 -5.336740 -7.060075 9.575286 -7.134866 -2.484019 11.111438 -34.216904 -22.935944 28.522385 33.242727 -0.611484 4.992953 1.922416 0.398817 -22.386827 -5.492135 -8.729517 -0.670676 20.322013 -34.562537 -31.748103 -40.802235 6.654735 -20.740917 8.360626 6.491796 22.848353 -1.853508 -29.753217 -9.449627 -3.453269 14.461795 2.448482 -2.345401 3.614847 9.512445 -0.428714 1.606037 3.756453 0.989747 1.543567 4.940989 -4.266642 7.747602 -3.326071 1.687615 -3.948758 9.980216 -0.009049 -0.097626 0.388035
-170.894354 94.034653 177.206518 -5.260701 -3.207030 -10.627901 3.101652 4.991057 3.295818 1.356173 2.236202 1.422760 1.356173 2.236202 1.422760 1.011799 1.680329 1.061976 -2.030421 15.625275 4.694728 -5.508362 -6.851361 9.501626 -7.120279 -2.393208 11.249028 -34.220069 -22.719968 28.820365 33.280042 -0.135005 5.142824 1.836968 0.528112 -22.278607 -5.566619 -8.964597 -0.525572 19.868226 -34.989422 -31.233373 -41.046749 6.567469 -20.471181 8.354790 6.549598 22.988144 -1.573994 -29.772358 -10.193304 -3.281975 15.074852 2.169002 -2.609022 2.692385 9.363828 -0.449444 1.535746 3.811008 1.118318 1.404028 4.759169 -4.179006 7.784941 -3.392455 1.782360 -4.104149 9.791024 -0.028543 0.013544 0.522922
-170.754366 93.949279 177.110468 -5.715729 -3.126099 -10.517852 3.059525 4.941987 3.391329 1.334029 2.214484 1.474093 1.334029 2.214484 1.474093 0.995060 1.664101 1.100603 -2.179731 15.756388 4.692721 -5.772896 -6.593735 9.540954 -7.122995 -2.318213 11.386847 -34.256117 -22.491373 29.144169 33.256457 0.299766 5.285647 1.719767 0.688278 -22.176769 -5.709429 -9.168209 -0.387394 19.368468 -35.472126 -30.743216 -41.281163 6.477924 -20.220722 8.304203 6.611554 23.090856 -1.417312 -29.820098 -10.849339 -3.100209 15.693917 1.877726 -2.852379 1.834940 9.175106 -0.471614 1.418519 3.888546 1.232362 1.215175 4.624600 -4.100667 7.864666 -3.422530 1.866262 -4.306907 9.517549 -0.044744 0.124983 0.667955
-170.639533 93.859356 177.026142 -6.122405 -3.016030 -10.466426 3.024612 4.897646 3.477834 1.312661 2.187805 1.510346 1.312661 2.187805 1.510346 0.978974 1.644118 1.127927 -2.348044 15.893982 4.741793 -6.089950 -6.317032 9.680938 -7.163579 -2.273560 11.524215 -34.349638 -22.267559 29.529813 33.162423 0.749606 5.433616 1.597910 0.816143 -22.094213 -5.911102 -9.383210 -0.255806 18.872587 -35.959326 -30.264554 -41.521717 6.379257 -19.965167 8.251895 6.648113 23.224011 -1.267220 -29.860234 -11.489245 -2.924149 16.392948 1.579909 -3.127022 1.016393 8.990308 -0.503197 1.217537 3.982687 1.276928 0.971532 4.579136 -4.012134 8.039627 -3.467662 1.941308 -4.604300 9.113075 -0.050492 0.237857 0.869303
-170.554225 93.772717 176.953600 -6.436332 -2.866808 -10.453463 2.977900 4.844445 3.528379 1.285831 2.159818 1.530147 1.285831 2.159818 1.530147 0.958857 1.623103 1.142934 -2.525787 16.028750 4.840958 -6.441832 -6.039009 9.916714 -7.258818 -2.240077 11.689028 -34.472297 -22.079256 29.922899 32.977827 1.130968 5.615683 1.507442 0.916947 -22.039825 -6.184175 -9.582915 -0.129026 18.296317 -36.432870 -29.791309 -41.774484 6.272954 -19.692533 8.159525 6.691649 23.379672 -1.119507 -29.896018 -12.131371 -2.833910 17.174426 1.260180 -3.385251 0.272331 8.791013 -0.540850 0.927339 4.089004 1.284938 0.646824 4.599101 -3.842707 8.334698 -3.508963 1.888724 -5.007157 8.568565 -0.051810 0.359666 1.124550
-170.496969 93.702997 176.887600 -6.612123 -2.674383 -10.459484 2.891120 4.776692 3.520087 1.247770 2.129030 1.537177 1.247770 2.129030 1.537177 0.930370 1.599930 1.148407 -2.711763 16.155240 4.976147 -6.821528 -5.770693 10.221959 -7.399473 -2.199305 11.837523 -34.620376 -21.830990 30.361404 32.764793 1.433630 5.763381 1.435220 0.952008 -22.009806 -6.481162 -9.780400 -0.022586 17.659076 -36.917686 -29.300087 -42.047938 6.190736 -19.436358 8.132416 6.724605 23.510323 -0.823894 -29.890479 -12.845847 -2.876104 18.059887 0.850312 -3.677601 -0.413742 8.592011 -0.596741 0.551167 4.250494 1.231008 0.248473 4.636487 -3.689077 8.708644 -3.525815 1.798569 -5.459039 7.961792 -0.057913 0.478259 1.357962
-170.465055 93.671063 176.830269 -6.664443 -2.464362 -10.499142 2.783127 4.703265 3.469549 1.203824 2.099743 1.537292 1.203824 2.099743 1.537292 0.897490 1.577854 1.148708 -2.909392 16.269137 5.125611 -7.228009 -5.521466 10.557819 -7.590229 -2.137617 11.931543 -34.814820 -21.509423 30.904078 32.533558 1.681940 5.860485 1.397209 0.989217 -21.971816 -6.801461 -9.920632 0.046917 17.008334 -37.444828 -28.833118 -42.406619 6.115043 -19.279504 8.139289 6.773889 23.574710 -0.246889 -29.762461 -13.630336 -3.132371 18.990756 0.382431 -4.046265 -1.025463 8.331482 -0.662189 0.116576 4.460178 1.130442 -0.155679 4.689324 -3.572372 9.083751 -3.490388 1.691105 -5.933705 7.368971 -0.069920 0.613741 1.505695
-170.478232 93.672772 176.791443 -6.630124 -2.267227 -10.642931 2.678466 4.632575 3.443464 1.156881 2.070739 1.535764 1.156881 2.070739 1.535764 0.862367 1.555979 1.147781 -3.111958 16.370327 5.268940 -7.641762 -5.294304 10.884156 -7.790404 -2.057797 11.973221 -35.036683 -21.076739 31.460494 32.291022 1.911629 5.922171 1.388557 1.008689 -21.941629 -7.136064 -9.993432 0.108233 16.404918 -37.995960 -28.437236 -42.854587 6.115004 -19.196850 8.198371 6.800703 23.588575 0.494741 -29.475568 -14.337154 -3.574643 19.934842 -0.180278 -4.364120 -1.516856 8.056283 -0.756563 -0.399868 4.689308 1.137960 -0.495135 4.847390 -3.682503 9.353271 -3.427709 1.604249 -6.290033 6.844758 -0.058427 0.687531 1.546065
